<svg width="24" height="24" viewBox="0 0 24 24" fill="none" xmlns="http://www.w3.org/2000/svg">
<path d="M4.45064 13.9082L11.4033 20.4395C11.6428 20.6644 11.7625 20.7769 11.9037 20.8046C11.9673 20.8171 12.0327 20.8171 12.0963 20.8046C12.2375 20.7769 12.3572 20.6644 12.5967 20.4395L19.5493 13.9082C21.5055 12.0706 21.743 9.04661 20.0978 6.92608L19.7885 6.52735C17.8203 3.99059 13.8696 4.41602 12.4867 7.31366C12.2913 7.72297 11.7087 7.72297 11.5133 7.31366C10.1304 4.41602 6.17969 3.99059 4.21151 6.52736L3.90216 6.92608C2.25692 9.04661 2.49447 12.0706 4.45064 13.9082Z" stroke="black" stroke-width="2"/>
</svg>
